<svg width="100.000000" height="100.000000" viewBox="0 0 100 100" fill="none" xmlns="http://www.w3.org/2000/svg" xmlns:xlink="http://www.w3.org/1999/xlink">
	<desc>
			Created with Pixso.
	</desc>
	<defs/>
	<circle id="Ellipse 207" cx="50.000000" cy="50.000000" r="50.000000" fill="#C10933" fill-opacity="1.000000"/>
	<path id="04" d="M48.14 51.11C48.13 60.94 43.61 66.65 36.1 66.65C28.59 66.64 24.04 60.91 24.07 51.11C24.08 41.34 28.62 35.77 36.1 35.77C43.58 35.77 48.16 41.36 48.14 51.11ZM66.49 60.75L52.17 60.75L52.17 55.79L64.63 36.18L72.51 36.18L72.51 55.71L76.22 55.71L76.22 60.75L72.51 60.75L72.51 66L66.49 66L66.49 60.75ZM30.48 51.11C30.47 57.99 32.69 61.42 36.1 61.42C39.51 61.42 41.72 57.99 41.7 51.11C41.7 44.34 39.49 40.94 36.1 40.94C32.7 40.94 30.49 44.34 30.48 51.11ZM58.53 55.71L66.61 55.71L66.61 43.05L66.38 43.05L58.53 55.46L58.53 55.71Z" fill="#FFFFFF" fill-opacity="1.000000" fill-rule="evenodd"/>
</svg>
