<svg width="100.000000" height="100.000000" viewBox="0 0 100 100" fill="none" xmlns="http://www.w3.org/2000/svg" xmlns:xlink="http://www.w3.org/1999/xlink">
	<desc>
			Created with Pixso.
	</desc>
	<defs/>
	<circle id="Ellipse 208" cx="50.000000" cy="50.000000" r="50.000000" fill="#C10933" fill-opacity="1.000000"/>
	<path id="05" d="M48.14 51.11C48.13 60.94 43.61 66.65 36.1 66.65C28.59 66.64 24.04 60.91 24.07 51.11C24.08 41.34 28.62 35.77 36.1 35.77C43.58 35.77 48.16 41.36 48.14 51.11ZM74.66 56.06C74.68 62.08 70.16 66.41 63.51 66.41C57.35 66.41 52.84 62.72 52.73 57.57L58.85 57.57C58.99 59.88 61.01 61.45 63.51 61.45C66.48 61.45 68.59 59.31 68.59 56.22C68.59 53.08 66.43 50.91 63.43 50.9C61.67 50.9 59.89 51.67 58.98 52.9L53.37 51.9L54.79 36.18L73.01 36.18L73.01 41.33L59.98 41.33L59.21 48.8L59.38 48.8C60.43 47.33 62.69 46.24 65.31 46.24C70.68 46.24 74.68 50.34 74.66 56.06ZM30.48 51.11C30.47 57.99 32.69 61.42 36.1 61.42C39.51 61.42 41.72 57.99 41.7 51.11C41.7 44.34 39.49 40.94 36.1 40.94C32.7 40.94 30.49 44.34 30.48 51.11Z" fill="#FFFFFF" fill-opacity="1.000000" fill-rule="evenodd"/>
</svg>
