<svg width="100.000000" height="100.000000" viewBox="0 0 100 100" fill="none" xmlns="http://www.w3.org/2000/svg" xmlns:xlink="http://www.w3.org/1999/xlink">
	<desc>
			Created with Pixso.
	</desc>
	<defs/>
	<circle id="Ellipse 206" cx="50.000000" cy="50.000000" r="50.000000" fill="#C10933" fill-opacity="1.000000"/>
	<path id="03" d="M49.14 51.11C49.13 60.94 44.61 66.65 37.1 66.65C29.59 66.64 25.04 60.91 25.07 51.11C25.08 41.34 29.62 35.77 37.1 35.77C44.58 35.77 49.16 41.36 49.14 51.11ZM76.13 57.63C76.14 62.72 71.35 66.41 64.65 66.41C58.1 66.41 53.44 62.78 53.33 57.57L59.69 57.57C59.8 59.75 61.88 61.2 64.66 61.2C67.55 61.2 69.59 59.58 69.57 57.2C69.59 54.79 67.48 53.11 64.09 53.11L61.31 53.11L61.31 48.48L64.09 48.48C66.97 48.48 68.96 46.9 68.95 44.54C68.96 42.3 67.26 40.76 64.7 40.76C62.13 40.76 60.05 42.23 59.98 44.5L53.93 44.5C54.02 39.35 58.62 35.77 64.73 35.77C70.91 35.77 75.03 39.47 75.01 44.17C75.03 47.52 72.73 49.88 69.4 50.47L69.4 50.71C73.78 51.26 76.14 53.91 76.13 57.63ZM31.48 51.11C31.47 57.99 33.69 61.42 37.1 61.42C40.51 61.42 42.72 57.99 42.7 51.11C42.7 44.34 40.49 40.94 37.1 40.94C33.7 40.94 31.49 44.34 31.48 51.11Z" fill="#FFFFFF" fill-opacity="1.000000" fill-rule="evenodd"/>
</svg>
