<svg width="100.000000" height="100.000000" viewBox="0 0 100 100" fill="none" xmlns="http://www.w3.org/2000/svg" xmlns:xlink="http://www.w3.org/1999/xlink">
	<desc>
			Created with Pixso.
	</desc>
	<defs/>
	<circle id="Ellipse 205" cx="50.000000" cy="50.000000" r="50.000000" fill="#C10933" fill-opacity="1.000000"/>
	<path id="02" d="M49.14 51.11C49.13 60.94 44.61 66.65 37.1 66.65C29.59 66.64 25.04 60.91 25.07 51.11C25.08 41.34 29.62 35.77 37.1 35.77C44.58 35.77 49.16 41.36 49.14 51.11ZM74.88 66L53.62 66L53.62 61.45L64.24 51.62C66.95 49.02 68.41 47.39 68.41 45.01C68.41 42.39 66.46 40.76 63.83 40.76C61.11 40.76 59.31 42.51 59.32 45.36L53.33 45.36C53.32 39.51 57.62 35.77 63.87 35.77C70.27 35.77 74.49 39.42 74.49 44.59C74.49 47.99 72.84 50.78 66.72 56.38L62.36 60.64L62.36 60.84L74.88 60.84L74.88 66ZM31.48 51.11C31.47 57.99 33.69 61.42 37.1 61.42C40.51 61.42 42.72 57.99 42.7 51.11C42.7 44.34 40.49 40.94 37.1 40.94C33.7 40.94 31.49 44.34 31.48 51.11Z" fill="#FFFFFF" fill-opacity="1.000000" fill-rule="evenodd"/>
</svg>
