<svg width="100.000000" height="100.000000" viewBox="0 0 100 100" fill="none" xmlns="http://www.w3.org/2000/svg" xmlns:xlink="http://www.w3.org/1999/xlink">
	<desc>
			Created with Pixso.
	</desc>
	<defs/>
	<circle id="Ellipse 204" cx="50.000000" cy="50.000000" r="50.000000" fill="#C10933" fill-opacity="1.000000"/>
	<path id="01" d="M52.14 51.11C52.13 60.94 47.61 66.65 40.1 66.65C32.59 66.64 28.04 60.91 28.07 51.11C28.08 41.34 32.62 35.77 40.1 35.77C47.58 35.77 52.16 41.36 52.14 51.11ZM63.67 36.18L69.6 36.18L69.6 66L63.3 66L63.3 42.16L63.12 42.16L56.29 46.45L56.29 40.85L63.67 36.18ZM34.48 51.11C34.47 57.99 36.69 61.42 40.1 61.42C43.51 61.42 45.72 57.99 45.7 51.11C45.7 44.34 43.49 40.94 40.1 40.94C36.7 40.94 34.49 44.34 34.48 51.11Z" fill="#FFFFFF" fill-opacity="1.000000" fill-rule="evenodd"/>
</svg>
