<svg width="21.875000" height="25.000000" viewBox="0 0 21.875 25" fill="none" xmlns="http://www.w3.org/2000/svg" xmlns:xlink="http://www.w3.org/1999/xlink">
	<desc>
			Created with Pixso.
	</desc>
	<defs/>
	<path id="Vector" d="M17.18 6.25C17.18 9.7 14.38 12.5 10.93 12.5C7.48 12.5 4.68 9.7 4.68 6.25C4.68 2.79 7.48 0 10.93 0C14.38 0 17.18 2.79 17.18 6.25ZM15.8 4.23Q16.18 5.16 16.18 6.25Q16.18 7.33 15.8 8.26Q15.41 9.19 14.65 9.96Q13.88 10.73 12.95 11.11Q12.02 11.5 10.93 11.5Q9.84 11.5 8.92 11.11Q7.99 10.73 7.22 9.96Q6.45 9.19 6.07 8.26Q5.68 7.33 5.68 6.25Q5.68 5.16 6.07 4.23Q6.45 3.3 7.22 2.53Q7.99 1.76 8.92 1.38Q9.84 1 10.93 1Q12.02 1 12.95 1.38Q13.88 1.76 14.65 2.53Q15.41 3.3 15.8 4.23ZM14.49 14.06L15.31 14.06C18.93 14.06 21.87 17 21.87 20.62L21.87 22.65C21.87 23.95 20.82 25 19.53 25L2.34 25C1.04 25 0 23.95 0 22.65L0 20.62C0 17 2.93 14.06 6.56 14.06L7.37 14.06C8.46 14.56 9.66 14.84 10.93 14.84C12.2 14.84 13.41 14.56 14.49 14.06ZM14.71 15.06Q13.79 15.45 12.84 15.65Q11.91 15.84 10.93 15.84Q10.04 15.84 9.19 15.68Q8.15 15.48 7.16 15.06L6.56 15.06Q5.41 15.06 4.43 15.46Q3.44 15.87 2.62 16.69Q1.81 17.5 1.4 18.49Q1 19.47 1 20.62L1 22.65Q1 23.32 1.33 23.66Q1.67 24 2.34 24L19.53 24Q20.2 24 20.53 23.66Q20.87 23.32 20.87 22.65L20.87 20.62Q20.87 19.47 20.46 18.49Q20.06 17.5 19.24 16.69Q18.42 15.87 17.44 15.46Q16.46 15.06 15.31 15.06L14.71 15.06Z" fill="CurrentColor" fill-opacity="1.000000" fill-rule="evenodd"/>
</svg>
